<svg id="visual" viewBox="0 0 960 300" width="960" height="300" xmlns="http://www.w3.org/2000/svg" xmlns:xlink="http://www.w3.org/1999/xlink" version="1.1"><rect x="0" y="0" width="960" height="300" fill="#333333"></rect><path d="M0 187L17.8 199.5C35.7 212 71.3 237 106.8 237.8C142.3 238.7 177.7 215.3 213.2 207.3C248.7 199.3 284.3 206.7 320 217.7C355.7 228.7 391.3 243.3 426.8 238.7C462.3 234 497.7 210 533.2 202.2C568.7 194.3 604.3 202.7 640 210.2C675.7 217.7 711.3 224.3 746.8 221.2C782.3 218 817.7 205 853.2 203.3C888.7 201.7 924.3 211.3 942.2 216.2L960 221L960 301L942.2 301C924.3 301 888.7 301 853.2 301C817.7 301 782.3 301 746.8 301C711.3 301 675.7 301 640 301C604.3 301 568.7 301 533.2 301C497.7 301 462.3 301 426.8 301C391.3 301 355.7 301 320 301C284.3 301 248.7 301 213.2 301C177.7 301 142.3 301 106.8 301C71.3 301 35.7 301 17.8 301L0 301Z" fill="#8fb9c8"></path><path d="M0 231L17.8 236.3C35.7 241.7 71.3 252.3 106.8 250.2C142.3 248 177.7 233 213.2 225.3C248.7 217.7 284.3 217.3 320 222.2C355.7 227 391.3 237 426.8 237.2C462.3 237.3 497.7 227.7 533.2 229.5C568.7 231.3 604.3 244.7 640 245.8C675.7 247 711.3 236 746.8 230.7C782.3 225.3 817.7 225.7 853.2 228.3C888.7 231 924.3 236 942.2 238.5L960 241L960 301L942.2 301C924.3 301 888.7 301 853.2 301C817.7 301 782.3 301 746.8 301C711.3 301 675.7 301 640 301C604.3 301 568.7 301 533.2 301C497.7 301 462.3 301 426.8 301C391.3 301 355.7 301 320 301C284.3 301 248.7 301 213.2 301C177.7 301 142.3 301 106.8 301C71.3 301 35.7 301 17.8 301L0 301Z" fill="#81abb9"></path><path d="M0 240L17.8 243C35.7 246 71.3 252 106.8 253.7C142.3 255.3 177.7 252.7 213.2 252.3C248.7 252 284.3 254 320 253.2C355.7 252.3 391.3 248.7 426.8 245.8C462.3 243 497.7 241 533.2 237.5C568.7 234 604.3 229 640 229.2C675.7 229.3 711.3 234.7 746.8 235.2C782.3 235.7 817.7 231.3 853.2 237.7C888.7 244 924.3 261 942.2 269.5L960 278L960 301L942.2 301C924.3 301 888.7 301 853.2 301C817.7 301 782.3 301 746.8 301C711.3 301 675.7 301 640 301C604.3 301 568.7 301 533.2 301C497.7 301 462.3 301 426.8 301C391.3 301 355.7 301 320 301C284.3 301 248.7 301 213.2 301C177.7 301 142.3 301 106.8 301C71.3 301 35.7 301 17.8 301L0 301Z" fill="#749dab"></path><path d="M0 268L17.8 265.2C35.7 262.3 71.3 256.7 106.8 258C142.3 259.3 177.7 267.7 213.2 273.8C248.7 280 284.3 284 320 284.3C355.7 284.7 391.3 281.3 426.8 277.2C462.3 273 497.7 268 533.2 265C568.7 262 604.3 261 640 258.7C675.7 256.3 711.3 252.7 746.8 255.2C782.3 257.7 817.7 266.3 853.2 265.2C888.7 264 924.3 253 942.2 247.5L960 242L960 301L942.2 301C924.3 301 888.7 301 853.2 301C817.7 301 782.3 301 746.8 301C711.3 301 675.7 301 640 301C604.3 301 568.7 301 533.2 301C497.7 301 462.3 301 426.8 301C391.3 301 355.7 301 320 301C284.3 301 248.7 301 213.2 301C177.7 301 142.3 301 106.8 301C71.3 301 35.7 301 17.8 301L0 301Z" fill="#678f9d"></path><path d="M0 287L17.8 284.2C35.7 281.3 71.3 275.7 106.8 273.2C142.3 270.7 177.7 271.3 213.2 270.7C248.7 270 284.3 268 320 269.7C355.7 271.3 391.3 276.7 426.8 278.8C462.3 281 497.7 280 533.2 280.3C568.7 280.7 604.3 282.3 640 280.7C675.7 279 711.3 274 746.8 276C782.3 278 817.7 287 853.2 288.5C888.7 290 924.3 284 942.2 281L960 278L960 301L942.2 301C924.3 301 888.7 301 853.2 301C817.7 301 782.3 301 746.8 301C711.3 301 675.7 301 640 301C604.3 301 568.7 301 533.2 301C497.7 301 462.3 301 426.8 301C391.3 301 355.7 301 320 301C284.3 301 248.7 301 213.2 301C177.7 301 142.3 301 106.8 301C71.3 301 35.7 301 17.8 301L0 301Z" fill="#5a818f"></path></svg>